<svg width="13" height="15" viewBox="0 0 13 15" fill="none" xmlns="http://www.w3.org/2000/svg">
<path d="M4.97055 6.40606L6.33204 5.28575C6.70431 4.97882 6.96596 4.57899 7.08342 4.13756C7.20087 3.69612 7.16877 3.23324 6.99123 2.80831L6.41063 1.4159C6.19372 0.896065 5.7643 0.470064 5.20985 0.224681C4.65541 -0.0207025 4.01765 -0.0670056 3.42652 0.0952047C1.25119 0.692931 -0.420876 2.50888 0.0938006 4.66525C0.43227 6.08385 1.08005 7.86451 2.30716 9.75902C3.53681 11.6581 4.9414 13.0607 6.14569 14.0467C7.96354 15.5325 10.5623 15.1613 12.2343 13.7609C12.6825 13.3856 12.9545 12.8709 12.9948 12.3217C13.0351 11.7725 12.8406 11.2302 12.4511 10.8053L11.3863 9.64402C11.0651 9.29285 10.6343 9.03601 10.1492 8.90656C9.66421 8.77711 9.14714 8.78097 8.66456 8.91764L6.90503 9.41518C6.45063 8.99401 6.05243 8.52672 5.71848 8.02276C5.39615 7.51311 5.14495 6.96973 4.97055 6.40492V6.40606Z" fill="#00A8E0"/>
</svg>
