<?xml version="1.0" encoding="utf-8"?><svg viewBox="0 0 502.66 502.66" xmlns="http://www.w3.org/2000/svg" xmlns:xlink="http://www.w3.org/1999/xlink"><style>:root>svg{display:none}:root>svg:target{display:block}</style><svg viewBox="0 0 502.664 502.664" id="icon" xmlns="http://www.w3.org/2000/svg"><path d="M153.821 358.226L0 274.337v-46.463l153.821-83.414v54.574L46.636 250.523l107.185 53.431v54.272zm26.273 29.358L282.103 115.08h32.227L212.084 387.584h-31.99zm168.749-29.358v-54.272l107.164-52.999-107.164-52.59v-53.927l153.821 83.522v46.183l-153.821 84.083z"/></svg><svg viewBox="0 0 9 16" id="icon-arrow-left" xmlns="http://www.w3.org/2000/svg"><path fill-rule="evenodd" clip-rule="evenodd" d="M8.707.293a1 1 0 010 1.414L2.414 8l6.293 6.293a1 1 0 11-1.414 1.414l-7-7a1 1 0 010-1.414l7-7a1 1 0 011.414 0z"/></svg><svg viewBox="0 0 9 16" id="icon-arrow-right" xmlns="http://www.w3.org/2000/svg"><path fill-rule="evenodd" clip-rule="evenodd" d="M.293 15.707a1 1 0 010-1.414L6.586 8 .293 1.707A1 1 0 011.707.293l7 7a1 1 0 010 1.414l-7 7a1 1 0 01-1.414 0z"/></svg><svg viewBox="0 0 9 2" id="icon-minus" xmlns="http://www.w3.org/2000/svg"><path d="M7.461.8c.15 0 .283.059.4.176a.501.501 0 01.176.384c0 .15-.059.283-.176.4a.578.578 0 01-.4.16H.997a.578.578 0 01-.4-.16.551.551 0 01-.176-.4c0-.15.059-.277.176-.384A.551.551 0 01.997.8h6.464z"/></svg><svg viewBox="0 0 60 12" id="menu-btn" xmlns="http://www.w3.org/2000/svg"><rect width="60" height="3" rx="1.5"/><rect x="14" y="9" width="46" height="3" rx="1.5"/></svg></svg>