<svg width="35" height="35" viewBox="0 0 35 35" fill="none" xmlns="http://www.w3.org/2000/svg">
<circle cx="17.5" cy="17.5" r="16.5" stroke="#00A8E0" stroke-width="2"/>
<path fill-rule="evenodd" clip-rule="evenodd" d="M20.7701 9.26286C20.0073 9.48072 19.2251 10.1288 18.8793 10.8295C18.5902 11.4154 18.5358 11.7601 18.5358 13.0083L18.5358 13.8188H16.105H13.6742V13.0161C13.6742 12.1283 13.6879 11.9832 13.7984 11.7016C13.9803 11.238 14.3946 10.874 14.9055 10.7289C15.7682 10.484 15.6561 9.29549 14.7711 9.30391C13.8865 9.31233 12.7295 10.2851 12.3837 11.311C12.1963 11.8671 12.2024 11.6924 12.2095 16.3473L12.2157 20.4153L12.2753 20.5424C12.5387 21.1046 13.3409 21.1046 13.6043 20.5424L13.6639 20.4153L13.67 19.4722L13.6761 18.5291H16.105H18.5338L18.54 19.4212L18.5461 20.3133L18.6041 20.4357C18.8811 21.0209 19.6854 21.0063 19.9588 20.411C19.9918 20.3391 19.995 20.0448 20.0047 16.1536L20.0152 11.9734L20.0614 11.8103C20.2281 11.222 20.6307 10.8211 21.2484 10.6281C21.8443 10.4419 22.0231 9.79019 21.5862 9.39665C21.3734 9.20489 21.119 9.16321 20.7701 9.26286ZM18.5358 16.1842V17.1018H16.105H13.6742V16.1842V15.2666H16.105H18.5358V16.1842ZM21.3061 20.5591C20.8709 20.6368 20.4558 20.8555 19.6891 21.411C19.3317 21.6701 19.0522 21.8455 18.9549 21.872C18.816 21.9098 18.6473 21.8183 17.7299 21.2074C16.9807 20.7085 16.617 20.5609 16.136 20.5609C15.6111 20.5609 15.3161 20.6899 14.1961 21.409C13.2301 22.0294 13.2622 22.0323 12.1764 21.2243C11.1133 20.4331 10.7045 20.3946 9.44645 20.9671C8.8534 21.237 7.75739 21.8499 7.5572 22.0236C7.142 22.3838 7.46429 23.0468 8.01501 22.9654C8.07902 22.9559 8.20956 22.8911 8.44428 22.7523C9.64938 22.0394 10.5582 21.628 10.821 21.6766C10.925 21.6958 11.1829 21.8579 11.6077 22.1711C13.0022 23.1993 13.4181 23.2229 14.7707 22.3504C16.119 21.4806 16.1482 21.4773 17.0773 22.0954C17.8198 22.5894 17.9462 22.6696 18.1226 22.7594C18.9024 23.1564 19.2883 23.0651 20.4908 22.1988C21.5356 21.4462 21.6501 21.4491 22.7975 22.2577C24.0118 23.1135 24.3333 23.1583 25.4868 22.6328C26.0489 22.3767 27.246 21.6538 27.4172 21.467C27.7276 21.1283 27.4683 20.5748 26.997 20.5702C26.8526 20.5688 26.779 20.602 26.4456 20.819C25.7857 21.2483 24.9004 21.7237 24.561 21.831C24.2727 21.9221 24.2018 21.893 23.4846 21.3894C22.4028 20.6298 21.9267 20.4484 21.3061 20.5591ZM21.4781 22.9765C21.0122 23.0299 20.6418 23.2242 19.6076 23.9578C19.3145 24.1657 19.0434 24.3202 18.9715 24.3202C18.898 24.3202 18.5927 24.1526 18.2462 23.9221C17.5667 23.47 17.4703 23.4081 17.2842 23.3043C16.3327 22.7736 15.8234 22.8525 14.4293 23.7466C13.3116 24.4634 13.3566 24.4633 12.3916 23.7492C11.0408 22.7495 10.627 22.7614 8.62644 23.8568C7.4683 24.491 7.29074 24.6946 7.52395 25.1206C7.7245 25.4869 8.00719 25.4947 8.59046 25.1498C9.72092 24.4815 10.6477 24.0596 10.8878 24.104C11.0028 24.1252 11.2518 24.2802 11.7009 24.6099C12.6103 25.2776 12.9188 25.419 13.4152 25.3953C13.8622 25.374 14.1247 25.2548 15.081 24.639C16.2232 23.9034 16.2135 23.9031 17.4447 24.7146C18.8667 25.652 19.144 25.654 20.4287 24.7358C21.6588 23.8567 21.6951 23.8564 22.9216 24.7163C24.0186 25.4854 24.356 25.5569 25.2386 25.2073C25.949 24.9259 27.3958 24.0743 27.5374 23.8542C27.7632 23.5033 27.5626 23.0572 27.1542 23.0021C26.9858 22.9793 26.8754 23.0241 26.4947 23.2695C25.6379 23.8219 24.8723 24.2189 24.5111 24.2983C24.3439 24.3351 24.1896 24.2587 23.623 23.8587C22.6628 23.1809 22.0638 22.9071 21.6493 22.9568C21.6379 22.9581 21.5609 22.967 21.4781 22.9765Z" fill="#00A8E0"/>
</svg>
