<svg width="35" height="36" viewBox="0 0 35 36" fill="none" xmlns="http://www.w3.org/2000/svg">
<path fill-rule="evenodd" clip-rule="evenodd" d="M16.1468 0.763002C13.5095 0.89779 10.3414 1.98802 7.88316 3.60668C-0.827035 9.34198 -2.62757 21.3916 4.03068 29.3886C9.20273 35.6005 17.9391 37.4915 25.1421 33.9582C31.9141 30.6363 35.7136 23.6712 34.8883 16.0918C34.2344 10.0861 30.0651 4.53752 24.3925 2.12384C21.746 0.997703 19.3362 0.600015 16.1468 0.763002ZM19.3773 2.54273C31.9111 4.23861 37.6142 18.7033 29.5633 28.3773C24.6499 34.2812 16.0225 35.7278 9.42152 31.7547C-1.31257 25.2938 -0.667367 9.6057 10.5604 4.0647C13.2928 2.71621 16.5297 2.15746 19.3773 2.54273ZM8.17676 9.92657L7.91704 10.1663L7.91797 18.2217L7.91886 26.2771L8.17765 26.5117L8.43645 26.7463L17.5035 26.7467L26.5704 26.7471L26.8279 26.524L27.0853 26.3009L27.0864 18.2279L27.0876 10.1549L26.8247 9.91965L26.5619 9.68441L17.4992 9.68563L8.43645 9.68688L8.17676 9.92657ZM25.2259 16.6957C25.2191 19.5114 25.2051 21.8235 25.1948 21.8338C25.1844 21.8442 24.2447 21.8634 23.1065 21.8765L21.0371 21.9003L20.1626 20.5312C19.1141 18.8898 18.2438 17.5731 18.2077 17.5735C18.1782 17.5738 17.1525 19.1304 17.1351 19.2013C17.129 19.2263 17.3847 19.6533 17.7033 20.1502C18.4346 21.2905 18.7347 21.7756 18.7347 21.8175C18.7347 21.8807 18.4413 21.8991 17.8433 21.8736L17.241 21.8478L16.4287 20.5762C15.4795 19.0904 14.2484 17.2163 14.2215 17.2163C14.1909 17.2163 13.0192 18.9909 12.0651 20.4824L11.1746 21.8746L10.4748 21.8842L9.77505 21.8939V16.7351V11.5763H17.5066H25.2382L25.2259 16.6957ZM21.6844 12.9872C20.1808 13.3668 19.6453 15.3519 20.7506 16.4488C22.0745 17.7628 24.2636 16.8508 24.2671 14.9838C24.2695 13.6633 22.9739 12.6616 21.6844 12.9872ZM22.6791 13.9085C23.872 14.4592 23.5149 16.1991 22.2108 16.1905C21.6771 16.1869 21.2081 15.8677 21.0895 15.4274C20.7999 14.3515 21.7247 13.4678 22.6791 13.9085Z" fill="#00A8E0"/>
</svg>
