<svg width="35" height="36" viewBox="0 0 35 36" fill="none" xmlns="http://www.w3.org/2000/svg">
<path fill-rule="evenodd" clip-rule="evenodd" d="M16.643 0.748672C7.35524 1.195 0 8.83154 0 18.0282C0 26.4373 6.16323 33.6567 14.5537 35.0757C24.7884 36.8066 34.2865 29.3789 34.9627 19.1155C35.6381 8.86556 27.0435 0.248897 16.643 0.748672ZM18.2144 2.49391C29.4849 3.05689 36.5404 14.666 31.7157 24.7087C29.1023 30.1487 23.6372 33.5453 17.5001 33.544C6.22076 33.5417 -1.3709 22.2649 2.98902 11.989C5.3024 6.53657 10.6955 2.79701 16.6787 2.49669C17.4872 2.45611 17.4587 2.45614 18.2144 2.49391ZM5.80969 11.1027C5.45154 11.2124 5.18 11.6309 5.22572 12.0026C5.24979 12.1982 9.64568 24.4334 9.75572 24.611C10.0695 25.1174 10.8952 25.1192 11.2063 24.6142C11.2961 24.4683 15.7489 12.3068 15.7997 12.0684C16.0209 11.0315 14.4858 10.6713 14.1086 11.6717C14.065 11.7874 13.2419 14.0386 12.2795 16.6743C11.3171 19.31 10.518 21.4787 10.5037 21.4936C10.4894 21.5086 9.67715 19.296 8.6986 16.5768C7.72006 13.8575 6.8898 11.5742 6.85362 11.5026C6.67448 11.1481 6.22423 10.9756 5.80969 11.1027ZM18.1152 11.0952C17.9038 11.1638 17.7339 11.302 17.617 11.5003L17.518 11.6684L17.5078 17.9391C17.5002 22.6679 17.508 24.2476 17.5397 24.3631C17.7618 25.1712 18.9149 25.2025 19.1959 24.4079C19.263 24.2181 19.2793 11.9172 19.2128 11.6782C19.0901 11.2375 18.554 10.9527 18.1152 11.0952ZM21.6906 11.079C21.3931 11.1497 21.1552 11.3638 21.053 11.6527C20.9737 11.8767 20.9731 24.178 21.0523 24.402C21.3127 25.1382 22.3096 25.2027 22.6577 24.5058L22.7502 24.3206V22.0652V19.8097H24.69C26.9621 19.8097 27.1244 19.7915 27.7502 19.4665C30.6329 17.9697 30.3391 12.3551 27.3205 11.2561C26.776 11.0578 26.5733 11.0449 24.0716 11.0487C22.8243 11.0506 21.7528 11.0642 21.6906 11.079ZM26.7045 12.8848C28.3331 13.5517 28.4638 17.2154 26.885 17.9428L26.6609 18.046L24.7055 18.0561L22.7502 18.0662V15.4269V12.7877L24.6341 12.7981C26.4655 12.8082 26.5233 12.8106 26.7045 12.8848Z" fill="#00A8E0"/>
</svg>
