<svg width="35" height="35" viewBox="0 0 35 35" fill="none" xmlns="http://www.w3.org/2000/svg">
<path fill-rule="evenodd" clip-rule="evenodd" d="M11.6589 9.43465C9.66649 10.3476 9.38239 12.1258 10.8613 14.4273C11.283 15.0833 11.8655 16.0188 12.1557 16.506C12.7752 17.5456 12.5507 17.7106 14.2777 14.9444C14.9193 13.9168 15.4911 12.8274 15.5485 12.5237C15.9454 10.4242 13.587 8.55123 11.6589 9.43465ZM13.5232 10.5437C14.3905 10.9887 14.5102 12.4003 13.7321 13.0076C12.926 13.6371 12.0112 13.5176 11.4296 12.7073C10.4725 11.3733 12.0211 9.77281 13.5232 10.5437ZM17.6683 13.309C16.5142 14.3167 16.2355 14.4905 15.7653 14.4957C15.0647 14.5035 14.9366 14.824 15.5501 15.0337C16.1946 15.2538 17.0786 17.6361 16.7221 18.1921C16.5128 18.5183 16.5372 18.5562 16.9766 18.5882C17.1674 18.6023 18.4718 22.137 18.4883 22.6851C18.4935 22.8565 18.1241 22.8734 16.3096 22.7842C14.4527 22.6928 14.0705 22.7119 13.765 22.9104C13.5675 23.0389 13.1649 23.2795 12.8704 23.445C12.5759 23.6107 12.094 23.8815 11.7995 24.0471C11.5051 24.2126 11.1053 24.4515 10.911 24.5778L10.5578 24.8074L9.96801 22.9721C9.51851 21.5731 9.42611 21.1253 9.57965 21.0887C9.87922 21.0169 9.82303 20.6607 9.49883 20.5765C9.29856 20.5246 9.12083 20.1842 8.88632 19.4037C8.70453 18.7988 8.426 17.9052 8.2672 17.4179C8.04094 16.7239 8.01901 16.5049 8.16609 16.4064C8.2693 16.3373 8.81315 16.0052 9.37473 15.6684C10.3367 15.0915 10.6899 14.549 10.0757 14.5916C9.44324 14.6356 7.23824 16.3013 7.3745 16.6322C7.44932 16.8136 7.7555 17.7671 8.05492 18.7512C8.35433 19.7353 8.75456 21.0436 8.94416 21.6587C9.1339 22.2737 9.4811 23.4018 9.71591 24.1655C10.2225 25.8138 10.0134 25.7992 12.4615 24.3565L14.2683 23.2916L16.7196 23.385L19.1707 23.4781L20.4259 22.3166C22.3785 20.5098 22.1423 20.6224 24.309 20.4651C25.3665 20.3883 26.4853 20.3235 26.7951 20.3211C27.5763 20.3151 27.6977 20.6463 24.6006 14.3377L23.605 12.3098L22.3644 12.2139C21.682 12.1611 20.6505 12.1204 20.0721 12.1232L19.0204 12.1286L17.6683 13.309ZM22.4911 12.8066L23.2576 12.898L24.109 14.6876C24.7819 16.102 24.9236 16.5213 24.7851 16.6871C24.6164 16.8888 24.9544 17.3158 25.2939 17.33C25.4605 17.337 26.5344 19.5441 26.4245 19.6533C26.3526 19.7245 23.4289 19.9789 22.2909 20.013C22.189 20.016 21.4792 20.5875 20.7134 21.2831C19.1197 22.7301 19.1582 22.713 18.9626 22.0687C18.8818 21.8023 18.5389 20.7791 18.2006 19.7954C17.7844 18.5845 17.615 17.8739 17.6764 17.5961C17.7421 17.2996 17.7084 17.1856 17.5553 17.1856C17.339 17.1856 16.6019 15.2709 16.7104 14.9903C16.7415 14.9099 17.3415 14.3662 18.0439 13.782L19.3209 12.7196L20.5228 12.7174C21.1838 12.7162 22.0696 12.7563 22.4911 12.8066ZM19.8843 15.0478C19.7811 15.0893 19.6965 15.2253 19.6965 15.3502C19.6965 15.4962 19.7815 15.5451 19.9341 15.4869C20.0649 15.4371 20.2339 15.3964 20.3097 15.3964C20.3856 15.3964 20.4477 15.2958 20.4477 15.1728C20.4477 14.9502 20.2421 14.9046 19.8843 15.0478ZM21.4993 15.1776C21.4993 15.3554 21.816 15.5455 22.1126 15.5455C22.4264 15.5455 22.221 15.1275 21.8749 15.0617C21.6357 15.0164 21.4993 15.0584 21.4993 15.1776ZM23.1519 15.9008C23.1519 16.1524 23.7153 16.3228 23.847 16.1112C23.9487 15.9478 23.646 15.7006 23.3397 15.6969C23.2365 15.6957 23.1519 15.7875 23.1519 15.9008ZM18.433 16.1272C18.256 16.3212 18.227 16.4427 18.3412 16.5128C18.5451 16.6379 18.9453 16.3307 18.9453 16.0492C18.9453 15.7617 18.7374 15.7933 18.433 16.1272ZM15.6712 19.5774C15.4331 19.9555 15.5779 20.2553 15.8789 20.0075C16.1006 19.8249 16.1741 19.2731 15.9768 19.2731C15.914 19.2731 15.7765 19.4099 15.6712 19.5774ZM14.3798 20.8948C14.0601 21.2455 14.2847 21.431 14.6791 21.142C14.8828 20.9928 14.9181 20.8869 14.8027 20.7706C14.6866 20.6534 14.5682 20.6883 14.3798 20.8948ZM10.8326 21.1954C10.8326 21.3693 11.2714 21.5345 11.4471 21.4267C11.7119 21.2643 11.5794 21.0623 11.2082 21.0623C11.0016 21.0623 10.8326 21.1222 10.8326 21.1954ZM12.5905 21.3056C12.3793 21.5152 12.4941 21.6587 12.8733 21.6587C13.1169 21.6587 13.2382 21.5893 13.1988 21.4723C13.1266 21.2567 12.7451 21.1522 12.5905 21.3056Z" fill="#00A8E0"/>
<circle cx="17.5" cy="17.5" r="16.5" stroke="#00A8E0" stroke-width="2"/>
</svg>
