<svg width="35" height="35" viewBox="0 0 35 35" fill="none" xmlns="http://www.w3.org/2000/svg">
<path fill-rule="evenodd" clip-rule="evenodd" d="M15.9179 8.52043C15.2963 8.81747 15.0315 9.90798 15.348 10.8672C15.4631 11.2157 15.6606 11.5351 16.0183 11.9509C16.4115 12.4081 16.4881 12.5374 16.5798 12.8996C16.7739 13.6665 16.8994 14.6838 16.9717 16.0781C16.9877 16.3872 16.9974 16.3787 16.7276 16.2928C15.7137 15.9702 14.6074 14.9172 14.558 14.2278C14.5474 14.0797 14.5535 14.0685 14.8202 13.7428C15.2967 13.1611 15.515 12.3443 15.3438 11.784C15.2361 11.4317 14.7266 11.1463 14.3298 11.216C13.9457 11.2834 13.7503 11.502 13.678 11.9451C13.5069 12.9945 13.0342 12.9955 12.6825 11.9472C12.46 11.2841 12.0925 11.0177 11.6472 11.1967C11.2671 11.3496 11.1379 11.5979 11.1348 12.1816C11.1317 12.7529 11.2565 13.044 11.7586 13.637C12.097 14.0367 12.226 14.2482 12.4368 14.7494C13.4036 17.0473 14.6525 18.3081 16.589 18.9414C16.6993 18.9775 16.8004 19.0172 16.8136 19.0297C16.8463 19.0606 16.6331 20.3191 16.5875 20.3645C16.5644 20.3874 15.2676 20.3748 15.0445 20.3495C13.3886 20.1617 12.1089 19.6392 11.8226 19.034C11.7229 18.8233 11.7375 18.7842 12.0358 18.4606C12.5551 17.8973 12.7663 17.3663 12.7444 16.6786C12.7286 16.1812 12.356 15.8425 11.825 15.8428C11.3645 15.8431 11.1389 16.0458 11.0437 16.5448C10.9131 17.2297 10.7605 17.4495 10.5059 17.3196C10.3257 17.2276 10.2138 17.0431 10.0326 16.539C9.8469 16.0225 9.69455 15.8512 9.36697 15.7907C8.77683 15.6816 8.35576 16.3202 8.50331 17.1006C8.57747 17.4928 8.67818 17.6648 9.18728 18.2685C9.44469 18.5738 9.49053 18.6589 9.64705 19.1233C9.9572 20.0434 10.171 20.4518 10.6093 20.9616C11.5948 22.1078 12.9588 22.6884 15.5017 23.0437C15.6187 23.0601 15.6179 23.0669 15.4703 23.3152C15.1044 23.9307 14.7953 24.3228 14.543 24.4914C14.4277 24.5684 14.3608 24.6066 14.0014 24.8006C13.7739 24.9235 13.5801 25.0519 13.4972 25.1348C13.1716 25.4604 13.0093 26.1553 13.2046 26.3874C13.3205 26.5251 12.9955 26.5143 17.1986 26.5206L20.9975 26.5263L21.0805 26.4397C21.2174 26.2968 21.2404 26.1599 21.1725 25.8912C21.0538 25.4217 20.8238 25.1681 20.0993 24.7082C19.1675 24.1165 19.1526 24.049 19.5751 22.3323L19.6813 21.901L19.79 21.8738C20.5465 21.6843 20.9584 21.5498 21.3945 21.3499C23.4768 20.3954 25.0355 18.1981 25.4556 15.6248C25.6441 14.4707 25.6704 14.3902 26.054 13.7905C26.4727 13.1363 26.5462 12.8946 26.5223 12.2518C26.4982 11.6054 26.2603 11.2503 25.7893 11.1576C25.2542 11.0523 24.9709 11.3447 24.832 12.1457C24.6865 12.9857 24.5603 13.2096 24.296 13.097C24.1706 13.0436 24.0886 12.903 23.9594 12.5205C23.7531 11.9099 23.4865 11.6649 23.0062 11.6446C21.9251 11.5989 21.8366 12.841 22.8285 14.1382C23.2857 14.7361 23.3285 14.842 23.2776 15.2514C23.0943 16.7273 21.7258 18.3724 20.2905 18.8425C20.0457 18.9227 20.063 18.9386 20.0315 18.605C19.9219 17.4435 19.6719 16.0259 19.3176 14.557C19.1686 13.9395 18.9869 13.0077 18.9737 12.7935L18.9626 12.6129L19.0997 12.4581C19.1751 12.3729 19.3577 12.1743 19.5055 12.0168C19.7884 11.715 19.9532 11.5097 20.0751 11.307C20.6603 10.3339 20.3007 8.94203 19.4519 8.89567C19.0704 8.87484 18.9451 9.03053 18.6238 9.92481C18.3341 10.7315 18.227 10.86 17.8668 10.834C17.4888 10.8066 17.4095 10.6609 17.126 9.47345C16.9607 8.78054 16.7032 8.50111 16.2079 8.47692C16.0445 8.46894 16.017 8.47309 15.9179 8.52043ZM16.2781 9.23732C16.3248 9.28751 16.3925 9.4962 16.4684 9.82451C16.6642 10.6712 16.7833 10.9652 17.0295 11.2087C17.6194 11.7924 18.6309 11.6352 19.0141 10.9002C19.0751 10.7832 19.414 9.91159 19.462 9.74832C19.5072 9.59466 19.6071 9.86824 19.6217 10.1856C19.6463 10.7201 19.4993 10.9948 18.8066 11.7086C18.1272 12.4088 18.1172 12.4931 18.5062 14.2436C18.8682 15.8727 18.9512 16.2604 19.0465 16.7655C19.2573 17.8828 19.287 18.1749 19.2868 19.1326C19.2865 20.3452 19.2652 20.4898 18.7872 22.5246C18.4298 24.0459 18.5443 24.5564 19.3633 25.0937C20.1886 25.6351 20.33 25.7365 20.33 25.7875C20.33 25.8092 13.9352 25.7933 13.9135 25.7716C13.8757 25.7339 14.174 25.529 14.5831 25.3117C15.0463 25.0657 15.2196 24.9218 15.5258 24.5289C17.4265 22.0908 18.1706 17.7105 17.419 13.3853C17.2477 12.3996 17.1283 12.1325 16.5715 11.4895C16.1013 10.9467 15.9398 10.566 15.9331 9.985C15.9281 9.55698 16.1427 9.09198 16.2781 9.23732ZM25.7863 12.0921C25.8633 12.5628 25.7843 12.8697 25.4534 13.3853C25.0246 14.0531 24.9452 14.2712 24.7951 15.1922C24.2989 18.2373 22.6422 20.3415 20.2012 21.027C19.8355 21.1297 19.8561 21.1749 19.9483 20.4706C19.981 20.2202 20.0149 19.9393 20.0235 19.8465L20.0391 19.6777L20.2899 19.6023C21.9061 19.1159 23.1865 17.853 23.7965 16.1436C24.1526 15.1458 24.0977 14.6183 23.5651 13.9206C23.0255 13.2135 22.9087 12.9909 22.8836 12.6205C22.8687 12.4009 22.8821 12.3421 22.9471 12.3421C23.0903 12.3421 23.1783 12.4629 23.302 12.8297C23.553 13.5738 23.8261 13.8166 24.412 13.8166C25.0718 13.8166 25.3392 13.4551 25.5451 12.2848C25.5788 12.0932 25.6162 11.9183 25.6281 11.896C25.6664 11.8245 25.7618 11.9428 25.7863 12.0921ZM11.9964 12.1728C12.3208 13.1766 12.9272 13.6337 13.6022 13.3832C13.9988 13.236 14.1878 12.9474 14.3627 12.2217C14.4244 11.9657 14.4369 11.9409 14.5044 11.9409C14.6539 11.9409 14.6845 12.0037 14.6668 12.274C14.6396 12.6883 14.5298 12.9468 14.2124 13.3439C13.893 13.7436 13.8136 13.9434 13.8401 14.2818C13.9275 15.4025 15.2573 16.6349 16.8676 17.0878L16.9858 17.121L16.9734 17.3244C16.9665 17.4363 16.9548 17.6797 16.9474 17.8655C16.929 18.3245 16.9389 18.3183 16.4987 18.1467C14.9203 17.5313 14.0366 16.5687 13.0805 14.4232C12.8175 13.833 12.6953 13.6256 12.4154 13.295C11.9197 12.7094 11.8458 12.562 11.8453 12.1582C11.8449 11.813 11.8812 11.8165 11.9964 12.1728ZM9.3659 16.8275C9.68847 17.7735 10.1852 18.1821 10.8414 18.0414C11.2988 17.9432 11.5745 17.5553 11.7456 16.7692C11.7971 16.5322 11.8535 16.4963 11.9837 16.6176C12.0292 16.6601 12.0307 16.6702 12.0192 16.8541C11.9888 17.3404 11.8657 17.5849 11.4088 18.067C11.0846 18.409 11.0551 18.468 11.0458 18.7933C11.009 20.0694 13.0691 21.0557 15.912 21.123C16.1795 21.1293 16.3985 21.1416 16.3985 21.1504C16.3985 21.1763 16.129 21.9445 16.0455 22.1568L15.9685 22.3523H15.8821C15.6368 22.3523 14.4411 22.1505 13.9613 22.0281C11.8806 21.4974 10.9136 20.6619 10.3305 18.891C10.1246 18.2655 10.0828 18.1919 9.65014 17.6927C9.29646 17.2847 9.23953 17.1726 9.22286 16.8513C9.20317 16.4717 9.24234 16.4652 9.3659 16.8275Z" fill="#00A8E0"/>
<circle cx="17.5" cy="17.5" r="16.5" stroke="#00A8E0" stroke-width="2"/>
</svg>
