<svg width="35" height="35" viewBox="0 0 35 35" fill="none" xmlns="http://www.w3.org/2000/svg">
<circle cx="17.5" cy="17.5" r="16.5" stroke="#00A8E0" stroke-width="2"/>
<path fill-rule="evenodd" clip-rule="evenodd" d="M21.3831 8.1455C19.868 8.4658 19.2215 10.2374 20.1818 11.4373C21.3775 12.9315 23.7583 12.0795 23.7583 10.1574C23.7583 8.88087 22.5892 7.89053 21.3831 8.1455ZM22.1425 8.99686C23.2992 9.40593 23.2013 11.0832 22.0049 11.3524C21.2204 11.5289 20.4819 10.8796 20.5446 10.0685C20.6067 9.26635 21.4 8.73429 22.1425 8.99686ZM15.4196 11.0067C15.1704 11.071 15.0017 11.1801 13.7869 12.0616C13.1054 12.5562 12.467 13.0193 12.3681 13.0907C12.1725 13.2321 11.916 13.5011 11.8012 13.6852C11.2366 14.5906 12.2587 15.8235 13.1962 15.368C13.3055 15.3149 13.4147 15.2714 13.4389 15.2714C13.4963 15.2714 13.5996 15.2164 13.7389 15.1118C13.8007 15.0653 14.305 14.6975 14.8595 14.2946L15.8676 13.5619L16.4093 13.7357C16.7072 13.8314 16.9533 13.912 16.9561 13.9149C16.959 13.9178 16.9026 14.0171 16.8307 14.1355C16.7588 14.254 16.3765 14.8838 15.9811 15.5351C15.0631 17.0472 14.9637 17.2446 14.8957 17.691C14.8724 17.844 14.8529 17.8789 14.3074 18.7479C13.9971 19.2422 13.6968 19.7208 13.64 19.8114L13.5367 19.9762L12.0085 19.9766C10.0762 19.9772 10.0583 19.9804 9.63765 20.4052C8.86902 21.1815 9.17889 22.414 10.2369 22.7887C10.3742 22.8373 14.0051 22.8624 14.3233 22.8169C15.0549 22.7123 15.3365 22.4778 16.186 21.2656C16.4965 20.8226 16.7766 20.4261 16.8085 20.3844L16.8665 20.3087L17.158 20.4891C18.3143 21.2047 18.7617 21.4918 18.7618 21.5186C18.7619 21.545 18.3556 23.6836 18.1876 24.541C18.0405 25.2913 18.127 25.6756 18.5366 26.0918C19.2317 26.7981 20.2383 26.6235 20.7247 25.7123C20.7705 25.6265 20.8284 25.5303 20.8532 25.4987C20.9355 25.3938 21.7611 20.9651 21.7432 20.7241C21.707 20.236 21.5951 20.0951 20.3831 19.0113L19.393 18.126L19.7326 17.4544C19.9194 17.0851 20.0742 16.7801 20.0767 16.7767C20.0792 16.7734 20.2054 17.0495 20.3572 17.3904C20.7864 18.3544 20.9149 18.5183 21.3714 18.6851L21.515 18.7375L23.104 18.7439C24.4674 18.7494 24.7142 18.7454 24.8415 18.7155C25.8623 18.4761 26.133 17.1435 25.2855 16.5298C24.9711 16.3021 25.0193 16.3089 23.6311 16.295L22.4211 16.2828L22.1468 15.6237C21.497 14.0624 21.3276 13.6384 21.3023 13.5099C21.2251 13.1173 21.0166 12.8423 20.4587 12.3976C20.4216 12.3681 20.1536 12.2107 19.8631 12.0479L19.335 11.7519L18.5484 11.5788C18.1158 11.4836 17.6506 11.3809 17.5146 11.3507C15.8099 10.9718 15.6542 10.9462 15.4196 11.0067ZM16.5033 11.9651C16.8741 12.0471 17.3393 12.1499 17.5371 12.1934C17.7349 12.237 18.1546 12.3295 18.4698 12.399L19.0428 12.5254L19.447 12.7517C19.6693 12.8762 19.8546 12.9676 19.8588 12.9549C19.863 12.9421 19.8885 12.9564 19.9154 12.9866C19.9423 13.0167 20.0148 13.0688 20.0766 13.1022C20.4917 13.3268 20.6389 13.762 20.4483 14.2012C20.4108 14.2877 20.3799 14.3875 20.3797 14.4229C20.3795 14.4679 20.3735 14.4779 20.3599 14.4562C20.3465 14.4349 20.095 14.9172 19.5479 16.0132C19.112 16.8865 18.6962 17.7164 18.6238 17.8573C18.3746 18.3426 18.3146 18.2516 19.7105 19.5043C21.0956 20.7472 20.9966 20.6041 20.8784 21.1922C20.8389 21.3887 20.617 22.5634 20.3481 23.9993C20.3048 24.2305 20.2504 24.5195 20.2272 24.6413L20.185 24.8629L20.3106 24.8639L20.4362 24.8649L20.3553 24.9082C20.2418 24.9689 20.1417 25.0922 20.1227 25.1948C20.0191 25.7528 19.2753 25.8844 19.0039 25.3926C18.8852 25.1775 18.8807 25.2152 19.2673 23.2151C19.6774 21.0934 19.6698 21.1664 19.4989 21.005C19.4025 20.914 16.5273 19.1306 16.5188 19.1565C16.5142 19.1703 16.4899 19.1553 16.4649 19.123C16.4398 19.0908 16.3555 19.0236 16.2775 18.9739C15.643 18.5686 15.5171 17.9186 15.9298 17.1795C15.9546 17.1351 15.9772 17.0711 15.9799 17.0374C15.9849 16.9768 16.0093 16.9551 16.0239 16.9984C16.028 17.0106 16.1285 16.8598 16.2472 16.6631C16.3659 16.4664 16.7646 15.8095 17.1332 15.2032C18.0329 13.7232 17.9753 13.8261 17.9753 13.6993C17.9753 13.4933 17.8875 13.369 17.6889 13.2938C17.3604 13.1696 15.8575 12.703 15.7856 12.703C15.6679 12.703 15.6281 12.7278 14.9301 13.2364C12.8582 14.7461 12.9871 14.6577 12.857 14.6577C12.5532 14.6577 12.3597 14.3399 12.4973 14.067C12.54 13.9822 12.6174 13.9162 12.9973 13.6407C13.2446 13.4614 13.8785 13.0006 14.4061 12.6168C14.9337 12.2329 15.4192 11.89 15.4849 11.8547C15.6363 11.7733 15.6364 11.7733 16.5033 11.9651ZM21.3928 15.9235C21.8295 16.9794 21.8347 16.9896 21.975 17.0613L22.0751 17.1124H23.3691H24.663L24.7631 17.1636C25.0581 17.3142 25.0581 17.7289 24.7631 17.8795L24.663 17.9307L23.1677 17.9302C21.4437 17.9296 21.5445 17.9415 21.4068 17.7218C21.3652 17.6554 21.3203 17.5704 21.3071 17.5329C21.2938 17.4954 21.1203 17.1027 20.9214 16.6603C20.7226 16.2178 20.5598 15.8409 20.5598 15.8227C20.5598 15.7848 20.969 14.9764 20.9882 14.9761C20.9952 14.976 21.1772 15.4023 21.3928 15.9235ZM15.3191 19.1381C15.3934 19.2333 15.5411 19.3812 15.6473 19.4665C15.7534 19.5519 15.8403 19.6301 15.8403 19.6404C15.8403 19.6506 15.9118 19.7058 15.9992 19.7629C16.0866 19.8201 16.1536 19.8788 16.1481 19.8933C16.1173 19.9746 14.9578 21.5959 14.8672 21.6845C14.7337 21.8149 14.5006 21.9414 14.3098 21.9869C14.1339 22.0288 10.6109 22.0393 10.465 21.9984C9.98462 21.8634 9.86798 21.195 10.2759 20.9144C10.4515 20.7936 10.4335 20.7948 12.1912 20.7946C13.9803 20.7945 13.9234 20.7984 14.0453 20.6657C14.0778 20.6303 14.3398 20.225 14.6276 19.7651C14.9153 19.3052 15.1582 18.937 15.1674 18.9469C15.1765 18.9567 15.2447 19.0428 15.3191 19.1381Z" fill="#00A8E0"/>
</svg>
