<svg width="35" height="35" viewBox="0 0 35 35" fill="none" xmlns="http://www.w3.org/2000/svg">
<circle cx="17.5" cy="17.5" r="16.5" stroke="#00A8E0" stroke-width="2"/>
<path fill-rule="evenodd" clip-rule="evenodd" d="M12.3988 8.47599C11.0032 8.5394 10.094 10.0038 10.6785 11.2468C11.3819 12.7426 13.5656 12.7787 14.3166 11.3068C15.0013 9.96472 13.9451 8.40572 12.3988 8.47599ZM20.8747 8.47597C19.3402 8.54548 18.4519 10.2633 19.3034 11.5147C20.1697 12.788 22.1525 12.6457 22.8126 11.2629C23.452 9.92324 22.3977 8.40698 20.8747 8.47597ZM12.8568 9.30384C13.8832 9.6005 14.0334 10.9572 13.0962 11.4669C12.3892 11.8514 11.4701 11.4303 11.3236 10.6548C11.16 9.78915 11.9938 9.05444 12.8568 9.30384ZM21.3121 9.29864C22.2019 9.54431 22.4956 10.6332 21.8418 11.2621C21.1107 11.9651 19.8785 11.536 19.7826 10.5448C19.7034 9.72579 20.5021 9.07501 21.3121 9.29864ZM10.5057 12.7991C9.47221 12.8841 8.65851 13.6429 8.49493 14.674C8.47044 14.8284 8.46519 19.7939 8.48931 19.9914C8.57511 20.6939 9.29322 21.18 9.97945 21.0001C10.0326 20.9862 10.0806 20.9748 10.0861 20.9748C10.0916 20.9748 10.0977 22.0344 10.0995 23.3294L10.1028 25.684L10.1305 25.7711C10.2462 26.1343 10.5307 26.3985 10.9118 26.4966C11.0091 26.5216 11.0307 26.5224 11.5347 26.519L12.0568 26.5154L12.1771 26.4749C12.2455 26.4519 12.3424 26.407 12.4013 26.371C12.5245 26.2958 12.5121 26.2972 12.5867 26.3493C12.8065 26.5029 12.9235 26.5234 13.5553 26.5189L14.072 26.5153L14.188 26.477C14.5779 26.3485 14.8708 26.0128 14.9211 25.6368C14.9272 25.5909 14.9324 24.9641 14.9326 24.2439C14.9328 23.5237 14.9359 22.9345 14.9396 22.9345C14.9432 22.9345 14.9912 22.9449 15.0464 22.9577C15.1016 22.9705 15.1892 22.9843 15.241 22.9884L15.3353 22.9958L15.3388 24.3577L15.3423 25.7197L15.3759 25.8243C15.4826 26.1557 15.7338 26.3952 16.0758 26.4916L16.1815 26.5214L16.9465 26.5209C17.7244 26.5205 17.7437 26.5196 17.8825 26.476C18.1795 26.3829 18.4363 26.1211 18.5314 25.8147C18.552 25.7482 18.5539 25.6507 18.56 24.3716L18.5664 22.9998L18.6519 22.9905C18.7347 22.9814 18.8796 22.9554 18.9359 22.9395L18.9634 22.9317L18.9635 24.1535C18.9636 25.6031 18.9635 25.6019 19.0848 25.8503C19.4132 26.5225 20.3068 26.7376 20.9065 26.2888C20.9898 26.2265 20.9858 26.227 21.0411 26.2714C21.7019 26.801 22.7344 26.464 22.9676 25.6426L22.9997 25.5296L23.0031 23.8706L23.0066 22.2116L23.6016 22.2069C24.1089 22.2029 24.2066 22.1993 24.2638 22.1826C24.607 22.0827 24.8408 21.7736 24.8405 21.4201C24.8404 21.2695 24.8328 21.2366 24.7215 20.9062C24.6246 20.6184 24.6223 20.6464 24.7433 20.6362C25.3315 20.5867 25.7437 20.1716 25.7863 19.586C25.8007 19.3882 25.7708 19.2544 25.594 18.7241C25.5264 18.5215 25.4463 18.281 25.4159 18.1896C25.3855 18.0981 25.3453 17.9779 25.3265 17.9223C25.3077 17.8668 25.2417 17.6691 25.1799 17.4829C25.118 17.2967 25.0519 17.099 25.033 17.0434C25.0141 16.9879 24.929 16.734 24.844 16.4793C24.7589 16.2245 24.6738 15.9706 24.6547 15.9151C24.6357 15.8596 24.5695 15.6618 24.5077 15.4757C24.4459 15.2895 24.3745 15.0757 24.349 15.0006C24.3236 14.9255 24.2548 14.7199 24.1963 14.5438C24.0002 13.954 23.8932 13.7413 23.6523 13.4625C23.3794 13.1468 23.0157 12.9155 22.689 12.85C22.4088 12.7938 22.5255 12.7974 20.9907 12.7974C19.4758 12.7974 19.512 12.7962 19.2809 12.8519C18.7549 12.9784 18.2619 13.388 18.2977 13.6686C18.3426 14.0219 18.7233 14.1393 19.0053 13.8868C19.1766 13.7333 19.3545 13.6368 19.5374 13.5981C19.6524 13.5737 22.3303 13.573 22.4319 13.5974C22.8718 13.7027 23.1623 14.007 23.352 14.5611C23.4016 14.7061 23.6608 15.4781 23.8324 15.9923C23.8695 16.1034 23.9099 16.2236 23.9221 16.2596C23.9512 16.3444 24.2334 17.188 24.4229 17.7561C24.5045 18.001 24.5814 18.2309 24.5938 18.2668C24.6061 18.3027 24.672 18.5005 24.7403 18.7062C24.8086 18.912 24.88 19.1258 24.899 19.1813C24.9869 19.4385 24.9985 19.5742 24.9421 19.6863C24.8261 19.917 24.4538 19.9046 24.3133 19.6654C24.2921 19.6294 24.0994 19.0832 23.8535 18.362C23.6206 17.6793 23.3593 16.9134 23.2729 16.6601C23.0717 16.0708 23.0608 16.0505 22.9048 15.9729C22.6491 15.8457 22.3194 16.0604 22.3368 16.3427C22.3414 16.4189 22.4259 16.672 23.3056 19.2466C23.3904 19.4949 23.47 19.73 23.4824 19.7692C23.4948 19.8084 23.5431 19.9501 23.5896 20.084C23.8047 20.7025 24.0318 21.3794 24.0318 21.4016V21.4262L21.9037 21.4232L19.7755 21.4201L19.769 20.1196C19.7616 18.6504 19.7673 18.7367 19.6616 18.487C19.4239 17.9257 18.9051 17.5559 18.2868 17.5072C18.078 17.4907 15.8211 17.4906 15.6096 17.507C14.8758 17.564 14.3103 18.062 14.1481 18.7941C14.1386 18.8369 14.1326 19.8392 14.1278 22.2119L14.1208 25.5692L14.0838 25.6203C14.0635 25.6485 14.0232 25.6877 13.9942 25.7074L13.9416 25.7434H13.5238C13.0648 25.7434 13.0872 25.7466 12.9992 25.6676C12.9172 25.5941 12.9246 25.8355 12.9178 22.9939L12.9117 20.4225L12.8774 20.3512C12.7304 20.0459 12.2977 20.0424 12.1498 20.3453L12.1179 20.4106L12.1118 22.976L12.1056 25.5415L12.0751 25.6006C12.0548 25.6399 12.0242 25.6738 11.9839 25.7016L11.9233 25.7434H11.5198C11.0319 25.7434 11.0008 25.7356 10.9262 25.5933C10.9031 25.5492 10.9026 25.4644 10.9025 20.7288C10.9023 16.7703 10.8994 15.8972 10.8861 15.8423C10.7993 15.4836 10.2974 15.429 10.1347 15.7607L10.1027 15.826L10.0961 17.8748C10.0892 20.0341 10.091 19.9721 10.0322 20.058C9.81771 20.3711 9.3529 20.2747 9.29108 19.9042C9.27358 19.7993 9.27355 15.0609 9.29106 14.8509C9.34183 14.2416 9.78231 13.7388 10.3792 13.6088L10.5057 13.5813H12.5148H14.5239L14.6338 13.6084C14.7888 13.6467 14.9521 13.7103 15.057 13.7733C15.2333 13.8792 15.2601 13.8894 15.3611 13.8898C15.6996 13.8909 15.8902 13.5222 15.6857 13.2616C15.5719 13.1164 15.167 12.9244 14.7742 12.8293L14.646 12.7983L12.6003 12.7967C11.4751 12.7958 10.5326 12.7968 10.5057 12.7991ZM16.7406 13.9802C15.767 14.1016 15.1177 15.0756 15.4031 15.9864C15.45 16.1364 15.4733 16.1881 15.5551 16.3249C15.9462 16.9788 16.7776 17.2715 17.5121 17.0138C18.5103 16.6637 18.8911 15.3925 18.238 14.5908C17.8622 14.1295 17.3192 13.908 16.7406 13.9802ZM17.1489 14.7822C17.6513 14.9005 17.9077 15.4703 17.6578 15.9131C17.3871 16.3927 16.6701 16.4554 16.3277 16.0294C15.8486 15.4334 16.3943 14.6046 17.1489 14.7822ZM18.3954 18.3217C18.6593 18.4101 18.8512 18.5973 18.9329 18.846L18.963 18.9378L18.9632 20.4191C18.9634 22.1118 18.9726 21.9712 18.8538 22.0886C18.7431 22.198 18.7225 22.2031 18.371 22.21C17.9751 22.2177 17.8694 22.2627 17.788 22.4582L17.7604 22.5247L17.7543 24.0687C17.7474 25.8113 17.757 25.6568 17.6515 25.7156L17.6016 25.7434H16.9473H16.293L16.2423 25.7108C16.14 25.6449 16.149 25.7942 16.1421 24.0509L16.136 22.501L16.1017 22.4331C16.0103 22.252 15.9221 22.2175 15.5315 22.2098C15.1493 22.2024 15.0737 22.1732 14.9738 21.9946C14.9511 21.9539 14.9201 19.3115 14.9391 19.0273C14.9635 18.6611 15.2354 18.3637 15.6018 18.3026C15.7491 18.2781 18.3175 18.2956 18.3954 18.3217ZM20.5756 22.2248C20.5757 22.233 20.5756 22.9598 20.5755 23.84L20.5752 25.4404L20.5459 25.505C20.3988 25.8285 19.9404 25.8195 19.8037 25.4905L19.7755 25.4227L19.7723 23.8314C19.7705 22.9562 19.7717 22.2333 19.7749 22.225C19.7835 22.2032 20.5754 22.203 20.5756 22.2248ZM22.1937 23.8134C22.1937 25.373 22.1932 25.4125 22.1696 25.4798C22.0534 25.8119 21.5916 25.8334 21.4285 25.5144L21.3999 25.4584L21.3938 23.846C21.3904 22.9593 21.3895 22.2283 21.3918 22.2217C21.3945 22.2138 21.5336 22.2107 21.7948 22.2128L22.1937 22.2159V23.8134Z" fill="#00A8E0"/>
</svg>
