<svg width="17" height="14" viewBox="0 0 17 14" fill="none" xmlns="http://www.w3.org/2000/svg">
<path d="M10.5741 4.5196L10.6927 4.75042L10.9497 4.78628L15.5267 5.42479C15.5268 5.42481 15.527 5.42483 15.5271 5.42485C15.5557 5.42903 15.5735 5.44246 15.5826 5.45424C15.5912 5.46521 15.5915 5.4726 15.5905 5.47879L15.5905 5.47879L15.5896 5.48454C15.5888 5.48989 15.5856 5.49954 15.5741 5.51047C15.574 5.51055 15.5739 5.51064 15.5739 5.51072L12.2622 8.61L12.0639 8.79563L12.1117 9.06306L12.8943 13.4407L12.8944 13.4411C12.8958 13.4489 12.895 13.4576 12.8867 13.4688C12.878 13.4805 12.8614 13.4936 12.8342 13.4981L12.8335 13.4982C12.8117 13.5019 12.7908 13.4977 12.7773 13.4908L12.775 13.4896L8.67985 11.4229L8.45458 11.3092L8.2293 11.4229L4.1341 13.4896L4.13335 13.49C4.11923 13.4972 4.10183 13.501 4.08355 13.4998C4.06528 13.4985 4.04946 13.4924 4.03776 13.4843C4.02623 13.4762 4.02002 13.4672 4.01706 13.4602C4.01419 13.4534 4.0137 13.4472 4.01474 13.4414L4.01487 13.4407L4.79748 9.06306L4.84529 8.79563L4.64694 8.61L1.33436 5.50984L1.33433 5.50981C1.3215 5.49781 1.31829 5.48588 1.31818 5.47809C1.31807 5.47048 1.32082 5.45908 1.33242 5.44734C1.34388 5.43638 1.36012 5.42786 1.37981 5.42516L1.38096 5.425L5.95943 4.78628L6.21645 4.75042L6.33507 4.5196L8.38079 0.538528C8.38724 0.526529 8.40066 0.512838 8.42479 0.505005C8.44939 0.497021 8.47492 0.498728 8.49652 0.508963L8.49709 0.509233C8.51369 0.51707 8.52293 0.527947 8.52716 0.536203L8.52739 0.536644L10.5741 4.5196Z" stroke="#FFD541"/>
</svg>
