<svg width="15" height="14" viewBox="0 0 15 14" fill="none" xmlns="http://www.w3.org/2000/svg">
<path d="M14.1633 4.9298L9.7756 4.29107L7.81419 0.308118C7.76062 0.199068 7.67248 0.110788 7.56361 0.0571283C7.29057 -0.0778871 6.95877 0.0346257 6.82225 0.308118L4.86083 4.29107L0.473132 4.9298C0.352164 4.94711 0.241564 5.00423 0.156886 5.09078C0.0545154 5.19617 -0.00189559 5.33796 4.86395e-05 5.48499C0.00199287 5.63202 0.0621333 5.77227 0.167255 5.87491L3.34181 8.97507L2.59181 13.3527C2.57422 13.4545 2.58547 13.5592 2.62428 13.655C2.6631 13.7508 2.72792 13.8337 2.8114 13.8944C2.89488 13.9552 2.99368 13.9912 3.09659 13.9986C3.19951 14.0059 3.30242 13.9843 3.39366 13.936L7.31822 11.8692L11.2428 13.936C11.3499 13.9931 11.4743 14.0122 11.5936 13.9914C11.8943 13.9395 12.0965 13.6539 12.0446 13.3527L11.2946 8.97507L14.4692 5.87491C14.5556 5.79009 14.6126 5.67931 14.6299 5.55814C14.6766 5.25522 14.4657 4.9748 14.1633 4.9298V4.9298Z" fill="#FFD541"/>
</svg>
