<svg width="11" height="27" viewBox="0 0 11 27" fill="none" xmlns="http://www.w3.org/2000/svg">
<path d="M5.5 0C6.33354 0 7.13294 0.284463 7.72233 0.790812C8.31174 1.29716 8.64286 1.98392 8.64286 2.7C8.64286 3.41608 8.31174 4.10284 7.72233 4.60919C7.13294 5.11554 6.33354 5.4 5.5 5.4C4.66646 5.4 3.86706 5.11554 3.27766 4.60919C2.68826 4.10284 2.35714 3.41608 2.35714 2.7C2.35714 1.98392 2.68826 1.29716 3.27766 0.790812C3.86706 0.284463 4.66646 0 5.5 0ZM3.14286 6.75H7.85714C8.69068 6.75 9.49008 7.03446 10.0795 7.54081C10.6689 8.04716 11 8.73392 11 9.45V16.875H8.64286V27H2.35714V16.875H0V9.45C0 8.73392 0.331122 8.04716 0.920522 7.54081C1.50992 7.03446 2.30932 6.75 3.14286 6.75Z" fill="#00A8E0"/>
</svg>
